<svg width="344" height="635" viewBox="0 0 344 635" fill="none" xmlns="http://www.w3.org/2000/svg">
<rect width="344" height="635" fill="#E5E5E5"/>
<rect width="344" height="635" fill="white"/>
<path d="M55 40H24V72" stroke="#161616" stroke-width="2"/>
<path d="M144.728 113L132 125.728L144.728 138.456" stroke="black" stroke-width="2"/>
<path d="M182.456 100.728L169.728 88L157 100.728" stroke="black" stroke-width="2"/>
<path d="M157 150.728L169.728 163.456L182.456 150.728" stroke="black" stroke-width="2"/>
<path d="M194.728 138.456L207.456 125.728L194.728 113" stroke="black" stroke-width="2"/>
<path d="M318 71V40L286 40" stroke="#161616" stroke-width="2"/>
<path d="M24 568L24 599H56" stroke="#161616" stroke-width="2"/>
<path d="M287 599H318V567" stroke="#161616" stroke-width="2"/>
<rect x="145" y="125.749" width="35" height="35" transform="rotate(-45 145 125.749)" fill="url(#paint0_linear_0_1)"/>
<path d="M76.825 190.15V194.05H69.775V208H64.925V190.15H76.825ZM96.0898 199.05C96.0898 200.9 95.7898 202.517 95.1898 203.9C94.6065 205.267 93.6732 206.333 92.3898 207.1C91.1232 207.867 89.4648 208.25 87.4148 208.25C85.4148 208.25 83.7732 207.867 82.4898 207.1C81.2065 206.333 80.2565 205.258 79.6398 203.875C79.0398 202.492 78.7398 200.875 78.7398 199.025C78.7398 197.175 79.0482 195.567 79.6648 194.2C80.2815 192.817 81.2315 191.75 82.5148 191C83.7982 190.25 85.4398 189.875 87.4398 189.875C89.4732 189.875 91.1232 190.258 92.3898 191.025C93.6732 191.775 94.6065 192.842 95.1898 194.225C95.7898 195.592 96.0898 197.2 96.0898 199.05ZM83.8148 199.05C83.8148 200.667 84.0898 201.933 84.6398 202.85C85.2065 203.767 86.1315 204.225 87.4148 204.225C88.7482 204.225 89.6815 203.767 90.2148 202.85C90.7482 201.933 91.0148 200.667 91.0148 199.05C91.0148 197.433 90.7482 196.158 90.2148 195.225C89.6815 194.292 88.7565 193.825 87.4398 193.825C86.1232 193.825 85.1898 194.292 84.6398 195.225C84.0898 196.158 83.8148 197.433 83.8148 199.05ZM107.762 193.85C106.628 193.85 105.737 194.317 105.087 195.25C104.437 196.183 104.112 197.483 104.112 199.15C104.112 200.833 104.437 202.117 105.087 203C105.737 203.867 106.72 204.3 108.037 204.3C108.82 204.3 109.578 204.192 110.312 203.975C111.062 203.758 111.812 203.492 112.562 203.175V207.25C111.778 207.6 110.97 207.85 110.137 208C109.32 208.167 108.445 208.25 107.512 208.25C105.578 208.25 103.995 207.867 102.762 207.1C101.528 206.333 100.62 205.267 100.037 203.9C99.4534 202.517 99.1617 200.925 99.1617 199.125C99.1617 197.325 99.4951 195.733 100.162 194.35C100.828 192.967 101.803 191.883 103.087 191.1C104.387 190.3 105.962 189.9 107.812 189.9C108.678 189.9 109.587 190 110.537 190.2C111.487 190.4 112.42 190.717 113.337 191.15L111.862 194.95C111.212 194.633 110.553 194.375 109.887 194.175C109.22 193.958 108.512 193.85 107.762 193.85ZM128.122 208L126.222 202.85H119.322L117.422 208H114.622L121.397 190.075H124.197L130.947 208H128.122ZM123.672 195.475C123.622 195.292 123.53 195.017 123.397 194.65C123.28 194.283 123.164 193.9 123.047 193.5C122.93 193.1 122.839 192.775 122.772 192.525C122.639 193.042 122.489 193.592 122.322 194.175C122.155 194.758 122.022 195.192 121.922 195.475L120.122 200.5H125.472L123.672 195.475ZM139.079 190.15C141.346 190.15 143.063 190.483 144.229 191.15C145.413 191.817 146.004 192.967 146.004 194.6C146.004 195.65 145.721 196.525 145.154 197.225C144.604 197.908 143.813 198.342 142.779 198.525V198.65C143.479 198.767 144.113 198.983 144.679 199.3C145.263 199.617 145.721 200.067 146.054 200.65C146.388 201.217 146.554 201.967 146.554 202.9C146.554 204.517 145.988 205.775 144.854 206.675C143.721 207.558 142.188 208 140.254 208H133.854V190.15H139.079ZM139.529 197.6C140.929 197.6 141.888 197.375 142.404 196.925C142.938 196.475 143.204 195.808 143.204 194.925C143.204 194.042 142.888 193.408 142.254 193.025C141.621 192.625 140.613 192.425 139.229 192.425H136.554V197.6H139.529ZM136.554 199.8V205.75H139.829C141.263 205.75 142.263 205.467 142.829 204.9C143.413 204.333 143.704 203.583 143.704 202.65C143.704 201.8 143.404 201.117 142.804 200.6C142.221 200.067 141.171 199.8 139.654 199.8H136.554ZM156.761 208H154.061V192.475H148.711V190.15H162.111V192.475H156.761V208ZM180.609 199.05C180.609 200.9 180.301 202.517 179.684 203.9C179.068 205.267 178.143 206.333 176.909 207.1C175.676 207.867 174.143 208.25 172.309 208.25C170.426 208.25 168.868 207.867 167.634 207.1C166.401 206.333 165.484 205.258 164.884 203.875C164.284 202.492 163.984 200.875 163.984 199.025C163.984 197.192 164.284 195.592 164.884 194.225C165.501 192.858 166.426 191.792 167.659 191.025C168.893 190.258 170.451 189.875 172.334 189.875C174.168 189.875 175.693 190.258 176.909 191.025C178.143 191.775 179.068 192.842 179.684 194.225C180.301 195.592 180.609 197.2 180.609 199.05ZM166.834 199.05C166.834 201.183 167.276 202.867 168.159 204.1C169.043 205.333 170.426 205.95 172.309 205.95C174.209 205.95 175.593 205.333 176.459 204.1C177.326 202.867 177.759 201.183 177.759 199.05C177.759 196.917 177.326 195.242 176.459 194.025C175.609 192.808 174.234 192.2 172.334 192.2C170.434 192.2 169.043 192.808 168.159 194.025C167.276 195.242 166.834 196.917 166.834 199.05ZM206.438 208H184.988V190.15H187.688V205.65H194.338V190.15H197.063V205.65H203.738V190.15H206.438V208ZM225.184 208H222.009L214.409 198.95V208H211.709V190.15H214.409V198.8L221.859 190.15H224.834L217.459 198.8L225.184 208ZM243.315 199.05C243.315 200.9 243.007 202.517 242.39 203.9C241.774 205.267 240.849 206.333 239.615 207.1C238.382 207.867 236.849 208.25 235.015 208.25C233.132 208.25 231.574 207.867 230.34 207.1C229.107 206.333 228.19 205.258 227.59 203.875C226.99 202.492 226.69 200.875 226.69 199.025C226.69 197.192 226.99 195.592 227.59 194.225C228.207 192.858 229.132 191.792 230.365 191.025C231.599 190.258 233.157 189.875 235.04 189.875C236.874 189.875 238.399 190.258 239.615 191.025C240.849 191.775 241.774 192.842 242.39 194.225C243.007 195.592 243.315 197.2 243.315 199.05ZM229.54 199.05C229.54 201.183 229.982 202.867 230.865 204.1C231.749 205.333 233.132 205.95 235.015 205.95C236.915 205.95 238.299 205.333 239.165 204.1C240.032 202.867 240.465 201.183 240.465 199.05C240.465 196.917 240.032 195.242 239.165 194.025C238.315 192.808 236.94 192.2 235.04 192.2C233.14 192.2 231.749 192.808 230.865 194.025C229.982 195.242 229.54 196.917 229.54 199.05ZM260.431 208H257.731V192.475H252.456C252.306 193.642 252.139 194.892 251.956 196.225C251.789 197.542 251.614 198.808 251.431 200.025C251.248 201.242 251.073 202.283 250.906 203.15C250.689 204.25 250.414 205.183 250.081 205.95C249.748 206.7 249.306 207.275 248.756 207.675C248.206 208.075 247.481 208.275 246.581 208.275C245.964 208.275 245.406 208.175 244.906 207.975V205.75C245.106 205.833 245.314 205.9 245.531 205.95C245.764 206 246.006 206.025 246.256 206.025C246.706 206.025 247.064 205.85 247.331 205.5C247.614 205.15 247.831 204.683 247.981 204.1C248.148 203.517 248.306 202.875 248.456 202.175C248.573 201.575 248.723 200.675 248.906 199.475C249.106 198.275 249.314 196.875 249.531 195.275C249.764 193.675 249.989 191.967 250.206 190.15H260.431V208ZM276.8 208L274.9 202.85H268L266.1 208H263.3L270.075 190.075H272.875L279.625 208H276.8ZM272.35 195.475C272.3 195.292 272.208 195.017 272.075 194.65C271.958 194.283 271.841 193.9 271.725 193.5C271.608 193.1 271.516 192.775 271.45 192.525C271.316 193.042 271.166 193.592 271 194.175C270.833 194.758 270.7 195.192 270.6 195.475L268.8 200.5H274.15L272.35 195.475Z" fill="black"/>
<path d="M69.3852 220.146V221.026H65.9422V228H64.9522V220.146H69.3852ZM77.5789 224.062C77.5789 224.876 77.4396 225.587 77.1609 226.196C76.8896 226.797 76.4862 227.267 75.9509 227.604C75.4156 227.941 74.7519 228.11 73.9599 228.11C73.1459 228.11 72.4676 227.941 71.9249 227.604C71.3896 227.267 70.9899 226.794 70.7259 226.185C70.4619 225.576 70.3299 224.865 70.3299 224.051C70.3299 223.244 70.4619 222.54 70.7259 221.939C70.9899 221.338 71.3896 220.868 71.9249 220.531C72.4676 220.194 73.1496 220.025 73.9709 220.025C74.7556 220.025 75.4156 220.194 75.9509 220.531C76.4862 220.861 76.8896 221.33 77.1609 221.939C77.4396 222.54 77.5789 223.248 77.5789 224.062ZM71.3749 224.062C71.3749 225.052 71.5839 225.833 72.0019 226.405C72.4199 226.97 73.0726 227.252 73.9599 227.252C74.8546 227.252 75.5072 226.97 75.9179 226.405C76.3286 225.833 76.5339 225.052 76.5339 224.062C76.5339 223.072 76.3286 222.298 75.9179 221.741C75.5072 221.176 74.8582 220.894 73.9709 220.894C73.0836 220.894 72.4272 221.176 72.0019 221.741C71.5839 222.298 71.3749 223.072 71.3749 224.062ZM81.6187 220.146C82.6453 220.146 83.3933 220.348 83.8627 220.751C84.332 221.154 84.5667 221.723 84.5667 222.456C84.5667 222.889 84.4677 223.296 84.2697 223.677C84.079 224.051 83.7527 224.355 83.2907 224.59C82.836 224.825 82.2163 224.942 81.4317 224.942H80.5297V228H79.5397V220.146H81.6187ZM81.5307 220.993H80.5297V224.095H81.3217C82.0697 224.095 82.627 223.974 82.9937 223.732C83.3603 223.49 83.5437 223.079 83.5437 222.5C83.5437 221.994 83.3823 221.616 83.0597 221.367C82.737 221.118 82.2273 220.993 81.5307 220.993ZM93.2728 224.062C93.2728 224.876 93.1335 225.587 92.8548 226.196C92.5835 226.797 92.1801 227.267 91.6448 227.604C91.1095 227.941 90.4458 228.11 89.6538 228.11C88.8398 228.11 88.1615 227.941 87.6188 227.604C87.0835 227.267 86.6838 226.794 86.4198 226.185C86.1558 225.576 86.0238 224.865 86.0238 224.051C86.0238 223.244 86.1558 222.54 86.4198 221.939C86.6838 221.338 87.0835 220.868 87.6188 220.531C88.1615 220.194 88.8435 220.025 89.6648 220.025C90.4495 220.025 91.1095 220.194 91.6448 220.531C92.1801 220.861 92.5835 221.33 92.8548 221.939C93.1335 222.54 93.2728 223.248 93.2728 224.062ZM87.0688 224.062C87.0688 225.052 87.2778 225.833 87.6958 226.405C88.1138 226.97 88.7665 227.252 89.6538 227.252C90.5485 227.252 91.2011 226.97 91.6118 226.405C92.0225 225.833 92.2278 225.052 92.2278 224.062C92.2278 223.072 92.0225 222.298 91.6118 221.741C91.2011 221.176 90.5521 220.894 89.6648 220.894C88.7775 220.894 88.1211 221.176 87.6958 221.741C87.2778 222.298 87.0688 223.072 87.0688 224.062ZM100.31 220.146V227.12H101.311V230.068H100.365V228H94.9637V230.068H94.0177V227.12H94.6227C94.8867 226.665 95.136 226.156 95.3707 225.591C95.6127 225.026 95.8254 224.436 96.0087 223.82C96.192 223.197 96.3424 222.573 96.4597 221.95C96.577 221.327 96.6504 220.725 96.6797 220.146H100.31ZM97.5487 221.037C97.5194 221.462 97.446 221.943 97.3287 222.478C97.2187 223.013 97.0757 223.563 96.8997 224.128C96.731 224.685 96.5404 225.224 96.3277 225.745C96.1224 226.266 95.9024 226.724 95.6677 227.12H99.3307V221.037H97.5487ZM106.21 220.905C105.367 220.905 104.703 221.187 104.219 221.752C103.735 222.317 103.493 223.09 103.493 224.073C103.493 225.048 103.717 225.822 104.164 226.394C104.619 226.959 105.297 227.241 106.199 227.241C106.544 227.241 106.87 227.212 107.178 227.153C107.486 227.094 107.787 227.021 108.08 226.933V227.791C107.787 227.901 107.483 227.982 107.167 228.033C106.859 228.084 106.489 228.11 106.056 228.11C105.257 228.11 104.59 227.945 104.054 227.615C103.519 227.285 103.116 226.816 102.844 226.207C102.58 225.598 102.448 224.883 102.448 224.062C102.448 223.27 102.591 222.573 102.877 221.972C103.171 221.363 103.6 220.89 104.164 220.553C104.729 220.208 105.415 220.036 106.221 220.036C107.05 220.036 107.772 220.19 108.388 220.498L107.992 221.334C107.75 221.224 107.479 221.125 107.178 221.037C106.885 220.949 106.562 220.905 106.21 220.905ZM115.745 228H114.557L111.004 224.018V228H110.014V220.146H111.004V223.952L114.469 220.146H115.591L112.181 223.963L115.745 228ZM121.962 228L121.016 225.569H117.903L116.968 228H115.967L119.036 220.113H119.927L122.985 228H121.962ZM119.839 222.313C119.817 222.254 119.781 222.148 119.729 221.994C119.678 221.84 119.627 221.682 119.575 221.521C119.531 221.352 119.495 221.224 119.465 221.136C119.414 221.363 119.355 221.587 119.289 221.807C119.223 222.02 119.168 222.188 119.124 222.313L118.233 224.689H120.719L119.839 222.313ZM126.645 224.744L124.61 228H123.455L125.655 224.568C125.376 224.473 125.112 224.341 124.863 224.172C124.621 224.003 124.423 223.772 124.269 223.479C124.115 223.186 124.038 222.808 124.038 222.346C124.038 221.635 124.283 221.092 124.775 220.718C125.266 220.337 125.999 220.146 126.975 220.146H129.175V228H128.185V224.744H126.645ZM126.997 220.993C126.373 220.993 125.893 221.103 125.556 221.323C125.226 221.536 125.061 221.891 125.061 222.39C125.061 222.874 125.222 223.248 125.545 223.512C125.867 223.776 126.366 223.908 127.041 223.908H128.185V220.993H126.997ZM131.25 227.406C131.25 227.135 131.316 226.944 131.448 226.834C131.58 226.724 131.738 226.669 131.921 226.669C132.112 226.669 132.273 226.724 132.405 226.834C132.544 226.944 132.614 227.135 132.614 227.406C132.614 227.67 132.544 227.861 132.405 227.978C132.273 228.095 132.112 228.154 131.921 228.154C131.738 228.154 131.58 228.095 131.448 227.978C131.316 227.861 131.25 227.67 131.25 227.406ZM199.643 220.905C198.799 220.905 198.136 221.187 197.652 221.752C197.168 222.317 196.926 223.09 196.926 224.073C196.926 225.048 197.149 225.822 197.597 226.394C198.051 226.959 198.73 227.241 199.632 227.241C199.976 227.241 200.303 227.212 200.611 227.153C200.919 227.094 201.219 227.021 201.513 226.933V227.791C201.219 227.901 200.915 227.982 200.6 228.033C200.292 228.084 199.921 228.11 199.489 228.11C198.689 228.11 198.022 227.945 197.487 227.615C196.951 227.285 196.548 226.816 196.277 226.207C196.013 225.598 195.881 224.883 195.881 224.062C195.881 223.27 196.024 222.573 196.31 221.972C196.603 221.363 197.032 220.89 197.597 220.553C198.161 220.208 198.847 220.036 199.654 220.036C200.482 220.036 201.205 220.19 201.821 220.498L201.425 221.334C201.183 221.224 200.911 221.125 200.611 221.037C200.317 220.949 199.995 220.905 199.643 220.905ZM210.085 224.062C210.085 224.876 209.946 225.587 209.667 226.196C209.396 226.797 208.992 227.267 208.457 227.604C207.922 227.941 207.258 228.11 206.466 228.11C205.652 228.11 204.974 227.941 204.431 227.604C203.896 227.267 203.496 226.794 203.232 226.185C202.968 225.576 202.836 224.865 202.836 224.051C202.836 223.244 202.968 222.54 203.232 221.939C203.496 221.338 203.896 220.868 204.431 220.531C204.974 220.194 205.656 220.025 206.477 220.025C207.262 220.025 207.922 220.194 208.457 220.531C208.992 220.861 209.396 221.33 209.667 221.939C209.946 222.54 210.085 223.248 210.085 224.062ZM203.881 224.062C203.881 225.052 204.09 225.833 204.508 226.405C204.926 226.97 205.579 227.252 206.466 227.252C207.361 227.252 208.013 226.97 208.424 226.405C208.835 225.833 209.04 225.052 209.04 224.062C209.04 223.072 208.835 222.298 208.424 221.741C208.013 221.176 207.364 220.894 206.477 220.894C205.59 220.894 204.933 221.176 204.508 221.741C204.09 222.298 203.881 223.072 203.881 224.062ZM214.29 220.146C215.272 220.146 216.013 220.293 216.512 220.586C217.018 220.872 217.271 221.374 217.271 222.093C217.271 222.555 217.142 222.94 216.886 223.248C216.629 223.549 216.259 223.743 215.775 223.831V223.886C216.105 223.937 216.402 224.033 216.666 224.172C216.937 224.311 217.15 224.509 217.304 224.766C217.458 225.023 217.535 225.356 217.535 225.767C217.535 226.478 217.289 227.028 216.798 227.417C216.314 227.806 215.65 228 214.807 228H212.046V220.146H214.29ZM214.488 223.49C215.162 223.49 215.624 223.384 215.874 223.171C216.123 222.951 216.248 222.628 216.248 222.203C216.248 221.77 216.094 221.462 215.786 221.279C215.485 221.088 215.001 220.993 214.334 220.993H213.036V223.49H214.488ZM213.036 224.315V227.164H214.62C215.316 227.164 215.8 227.028 216.072 226.757C216.343 226.486 216.479 226.13 216.479 225.69C216.479 225.279 216.336 224.949 216.05 224.7C215.771 224.443 215.269 224.315 214.543 224.315H213.036ZM221.499 220.146C222.526 220.146 223.274 220.348 223.743 220.751C224.212 221.154 224.447 221.723 224.447 222.456C224.447 222.889 224.348 223.296 224.15 223.677C223.959 224.051 223.633 224.355 223.171 224.59C222.716 224.825 222.097 224.942 221.312 224.942H220.41V228H219.42V220.146H221.499ZM221.411 220.993H220.41V224.095H221.202C221.95 224.095 222.507 223.974 222.874 223.732C223.241 223.49 223.424 223.079 223.424 222.5C223.424 221.994 223.263 221.616 222.94 221.367C222.617 221.118 222.108 220.993 221.411 220.993ZM230.689 228H226.3V220.146H230.689V221.015H227.29V223.468H230.491V224.326H227.29V227.131H230.689V228ZM236.098 228L233.513 221.114H233.469C233.491 221.341 233.509 221.649 233.524 222.038C233.538 222.419 233.546 222.819 233.546 223.237V228H232.633V220.146H234.096L236.516 226.581H236.56L239.024 220.146H240.476V228H239.497V223.171C239.497 222.79 239.504 222.412 239.519 222.038C239.541 221.664 239.559 221.36 239.574 221.125H239.53L236.912 228H236.098ZM247.221 228H242.832V220.146H247.221V221.015H243.822V223.468H247.023V224.326H243.822V227.131H247.221V228ZM255.17 228H254.18V224.337H250.154V228H249.164V220.146H250.154V223.468H254.18V220.146H255.17V228ZM263.544 228H262.554V224.337H258.528V228H257.538V220.146H258.528V223.468H262.554V220.146H263.544V228ZM270.839 228L269.893 225.569H266.78L265.845 228H264.844L267.913 220.113H268.804L271.862 228H270.839ZM268.716 222.313C268.694 222.254 268.657 222.148 268.606 221.994C268.555 221.84 268.503 221.682 268.452 221.521C268.408 221.352 268.371 221.224 268.342 221.136C268.291 221.363 268.232 221.587 268.166 221.807C268.1 222.02 268.045 222.188 268.001 222.313L267.11 224.689H269.596L268.716 222.313ZM275.521 224.744L273.486 228H272.331L274.531 224.568C274.253 224.473 273.989 224.341 273.739 224.172C273.497 224.003 273.299 223.772 273.145 223.479C272.991 223.186 272.914 222.808 272.914 222.346C272.914 221.635 273.16 221.092 273.651 220.718C274.143 220.337 274.876 220.146 275.851 220.146H278.051V228H277.061V224.744H275.521ZM275.873 220.993C275.25 220.993 274.77 221.103 274.432 221.323C274.102 221.536 273.937 221.891 273.937 222.39C273.937 222.874 274.099 223.248 274.421 223.512C274.744 223.776 275.243 223.908 275.917 223.908H277.061V220.993H275.873Z" fill="black"/>
<path d="M141.541 224.062C141.541 224.876 141.402 225.587 141.123 226.196C140.852 226.797 140.449 227.267 139.913 227.604C139.378 227.941 138.714 228.11 137.922 228.11C137.108 228.11 136.43 227.941 135.887 227.604C135.352 227.267 134.952 226.794 134.688 226.185C134.424 225.576 134.292 224.865 134.292 224.051C134.292 223.244 134.424 222.54 134.688 221.939C134.952 221.338 135.352 220.868 135.887 220.531C136.43 220.194 137.112 220.025 137.933 220.025C138.718 220.025 139.378 220.194 139.913 220.531C140.449 220.861 140.852 221.33 141.123 221.939C141.402 222.54 141.541 223.248 141.541 224.062ZM135.337 224.062C135.337 225.052 135.546 225.833 135.964 226.405C136.382 226.97 137.035 227.252 137.922 227.252C138.817 227.252 139.47 226.97 139.88 226.405C140.291 225.833 140.496 225.052 140.496 224.062C140.496 223.072 140.291 222.298 139.88 221.741C139.47 221.176 138.821 220.894 137.933 220.894C137.046 220.894 136.39 221.176 135.964 221.741C135.546 222.298 135.337 223.072 135.337 224.062ZM145.655 228H144.665V221.015H142.212V220.146H148.097V221.015H145.655V228ZM155.232 228H154.044L150.491 224.018V228H149.501V220.146H150.491V223.952L153.956 220.146H155.078L151.668 223.963L155.232 228ZM158.6 220.146C159.627 220.146 160.375 220.348 160.844 220.751C161.314 221.154 161.548 221.723 161.548 222.456C161.548 222.889 161.449 223.296 161.251 223.677C161.061 224.051 160.734 224.355 160.272 224.59C159.818 224.825 159.198 224.942 158.413 224.942H157.511V228H156.521V220.146H158.6ZM158.512 220.993H157.511V224.095H158.303C159.051 224.095 159.609 223.974 159.975 223.732C160.342 223.49 160.525 223.079 160.525 222.5C160.525 221.994 160.364 221.616 160.041 221.367C159.719 221.118 159.209 220.993 158.512 220.993ZM163.401 228V220.146H164.391V223.468H165.601C166.335 223.468 166.91 223.567 167.328 223.765C167.754 223.963 168.054 224.231 168.23 224.568C168.414 224.905 168.505 225.283 168.505 225.701C168.505 226.39 168.282 226.948 167.834 227.373C167.394 227.791 166.69 228 165.722 228H163.401ZM169.715 228V220.146H170.705V228H169.715ZM165.634 227.164C166.265 227.164 166.731 227.043 167.031 226.801C167.332 226.559 167.482 226.192 167.482 225.701C167.482 225.195 167.317 224.843 166.987 224.645C166.665 224.44 166.166 224.337 165.491 224.337H164.391V227.164H165.634ZM175.55 228H174.56V221.015H172.107V220.146H177.992V221.015H175.55V228ZM183.551 228L182.605 225.569H179.492L178.557 228H177.556L180.625 220.113H181.516L184.574 228H183.551ZM181.428 222.313C181.406 222.254 181.369 222.148 181.318 221.994C181.266 221.84 181.215 221.682 181.164 221.521C181.12 221.352 181.083 221.224 181.054 221.136C181.002 221.363 180.944 221.587 180.878 221.807C180.812 222.02 180.757 222.188 180.713 222.313L179.822 224.689H182.308L181.428 222.313ZM188.233 224.744L186.198 228H185.043L187.243 224.568C186.964 224.473 186.7 224.341 186.451 224.172C186.209 224.003 186.011 223.772 185.857 223.479C185.703 223.186 185.626 222.808 185.626 222.346C185.626 221.635 185.872 221.092 186.363 220.718C186.854 220.337 187.588 220.146 188.563 220.146H190.763V228H189.773V224.744H188.233ZM188.585 220.993C187.962 220.993 187.481 221.103 187.144 221.323C186.814 221.536 186.649 221.891 186.649 222.39C186.649 222.874 186.81 223.248 187.133 223.512C187.456 223.776 187.954 223.908 188.629 223.908H189.773V220.993H188.585ZM192.838 227.406C192.838 227.135 192.904 226.944 193.036 226.834C193.168 226.724 193.326 226.669 193.509 226.669C193.7 226.669 193.861 226.724 193.993 226.834C194.133 226.944 194.202 227.135 194.202 227.406C194.202 227.67 194.133 227.861 193.993 227.978C193.861 228.095 193.7 228.154 193.509 228.154C193.326 228.154 193.168 228.095 193.036 227.978C192.904 227.861 192.838 227.67 192.838 227.406Z" fill="#FF981F"/>
<rect x="153" y="236" width="38" height="6" fill="#FF981F"/>
<g filter="url(#filter0_dd_0_1)">
<rect x="63" y="285" width="218" height="47" rx="10" fill="white"/>
<rect x="63.5" y="285.5" width="217" height="46" rx="9.5" stroke="#DFDFDF"/>
</g>
<g filter="url(#filter1_dd_0_1)">
<rect x="61" y="353" width="218" height="47" rx="10" fill="white"/>
<rect x="61.5" y="353.5" width="217" height="46" rx="9.5" stroke="#DFDFDF"/>
</g>
<g filter="url(#filter2_dd_0_1)">
<rect x="62" y="421" width="218" height="47" rx="10" fill="white"/>
<rect x="62.5" y="421.5" width="217" height="46" rx="9.5" stroke="#DFDFDF"/>
</g>
<g filter="url(#filter3_dd_0_1)">
<rect x="62" y="489" width="218" height="47" rx="10" fill="white"/>
<rect x="62.5" y="489.5" width="217" height="46" rx="9.5" stroke="#DFDFDF"/>
</g>
<path d="M78.5252 302.97C77.4519 302.97 76.6072 303.329 75.9912 304.048C75.3752 304.767 75.0672 305.751 75.0672 307.002C75.0672 308.243 75.3519 309.228 75.9212 309.956C76.4999 310.675 77.3632 311.034 78.5112 311.034C78.9499 311.034 79.3652 310.997 79.7572 310.922C80.1492 310.847 80.5319 310.754 80.9052 310.642V311.734C80.5319 311.874 80.1446 311.977 79.7432 312.042C79.3512 312.107 78.8799 312.14 78.3292 312.14C77.3119 312.14 76.4626 311.93 75.7812 311.51C75.0999 311.09 74.5866 310.493 74.2412 309.718C73.9052 308.943 73.7372 308.033 73.7372 306.988C73.7372 305.98 73.9192 305.093 74.2832 304.328C74.6566 303.553 75.2026 302.951 75.9212 302.522C76.6399 302.083 77.5126 301.864 78.5392 301.864C79.5939 301.864 80.5132 302.06 81.2972 302.452L80.7932 303.516C80.4852 303.376 80.1399 303.25 79.7572 303.138C79.3839 303.026 78.9732 302.97 78.5252 302.97ZM86.2229 302.004C87.4736 302.004 88.4163 302.191 89.0509 302.564C89.6949 302.928 90.0169 303.567 90.0169 304.482C90.0169 305.07 89.8536 305.56 89.5269 305.952C89.2003 306.335 88.7289 306.582 88.1129 306.694V306.764C88.5329 306.829 88.9109 306.951 89.2469 307.128C89.5923 307.305 89.8629 307.557 90.0589 307.884C90.2549 308.211 90.3529 308.635 90.3529 309.158C90.3529 310.063 90.0403 310.763 89.4149 311.258C88.7989 311.753 87.9543 312 86.8809 312H83.3669V302.004H86.2229ZM86.4749 306.26C87.3336 306.26 87.9216 306.125 88.2389 305.854C88.5563 305.574 88.7149 305.163 88.7149 304.622C88.7149 304.071 88.5189 303.679 88.1269 303.446C87.7443 303.203 87.1283 303.082 86.2789 303.082H84.6269V306.26H86.4749ZM84.6269 307.31V310.936H86.6429C87.5296 310.936 88.1456 310.763 88.4909 310.418C88.8363 310.073 89.0089 309.62 89.0089 309.06C89.0089 308.537 88.8269 308.117 88.4629 307.8C88.1083 307.473 87.4689 307.31 86.5449 307.31H84.6269ZM95.7624 307.856L93.1724 312H91.7024L94.5024 307.632C94.1477 307.511 93.8117 307.343 93.4944 307.128C93.1864 306.913 92.9344 306.619 92.7384 306.246C92.5424 305.873 92.4444 305.392 92.4444 304.804C92.4444 303.899 92.7571 303.208 93.3824 302.732C94.0077 302.247 94.9411 302.004 96.1824 302.004H98.9824V312H97.7224V307.856H95.7624ZM96.2104 303.082C95.4171 303.082 94.8057 303.222 94.3764 303.502C93.9564 303.773 93.7464 304.225 93.7464 304.86C93.7464 305.476 93.9517 305.952 94.3624 306.288C94.7731 306.624 95.4077 306.792 96.2664 306.792H97.7224V303.082H96.2104ZM107.882 304.342C107.882 305.023 107.667 305.565 107.238 305.966C106.808 306.358 106.234 306.61 105.516 306.722V306.778C106.356 306.89 106.995 307.151 107.434 307.562C107.872 307.973 108.092 308.509 108.092 309.172C108.092 310.049 107.756 310.763 107.084 311.314C106.412 311.865 105.404 312.14 104.06 312.14C103.518 312.14 103 312.098 102.506 312.014C102.02 311.939 101.568 311.799 101.148 311.594V310.446C101.586 310.651 102.062 310.815 102.576 310.936C103.098 311.048 103.588 311.104 104.046 311.104C104.942 311.104 105.618 310.936 106.076 310.6C106.542 310.264 106.776 309.788 106.776 309.172C106.776 308.537 106.505 308.075 105.964 307.786C105.422 307.497 104.666 307.352 103.696 307.352H102.268V306.302H103.626C104.615 306.302 105.352 306.139 105.838 305.812C106.332 305.476 106.58 305.028 106.58 304.468C106.58 303.964 106.393 303.577 106.02 303.306C105.646 303.035 105.161 302.9 104.564 302.9C103.938 302.9 103.416 302.979 102.996 303.138C102.585 303.297 102.184 303.502 101.792 303.754L101.19 302.9C101.582 302.611 102.062 302.368 102.632 302.172C103.21 301.967 103.859 301.864 104.578 301.864C105.66 301.864 106.482 302.097 107.042 302.564C107.602 303.031 107.882 303.623 107.882 304.342ZM116.756 312L115.552 308.906H111.59L110.4 312H109.126L113.032 301.962H114.166L118.058 312H116.756ZM114.054 304.762C114.026 304.687 113.98 304.552 113.914 304.356C113.849 304.16 113.784 303.959 113.718 303.754C113.662 303.539 113.616 303.376 113.578 303.264C113.513 303.553 113.438 303.838 113.354 304.118C113.27 304.389 113.2 304.603 113.144 304.762L112.01 307.786H115.174L114.054 304.762ZM121.885 312H120.625V303.11H117.503V302.004H124.993V303.11H121.885V312ZM126.781 312V302.004H128.041V306.232H129.917C130.85 306.232 131.592 306.358 132.143 306.61C132.693 306.862 133.09 307.203 133.333 307.632C133.575 308.061 133.697 308.542 133.697 309.074C133.697 309.951 133.398 310.661 132.801 311.202C132.203 311.734 131.293 312 130.071 312H126.781ZM129.945 310.922C131.578 310.922 132.395 310.306 132.395 309.074C132.395 308.43 132.171 307.977 131.723 307.716C131.275 307.455 130.621 307.324 129.763 307.324H128.041V310.922H129.945ZM140.327 302.97C139.254 302.97 138.409 303.329 137.793 304.048C137.177 304.767 136.869 305.751 136.869 307.002C136.869 308.243 137.154 309.228 137.723 309.956C138.302 310.675 139.165 311.034 140.313 311.034C140.752 311.034 141.167 310.997 141.559 310.922C141.951 310.847 142.334 310.754 142.707 310.642V311.734C142.334 311.874 141.946 311.977 141.545 312.042C141.153 312.107 140.682 312.14 140.131 312.14C139.114 312.14 138.264 311.93 137.583 311.51C136.902 311.09 136.388 310.493 136.043 309.718C135.707 308.943 135.539 308.033 135.539 306.988C135.539 305.98 135.721 305.093 136.085 304.328C136.458 303.553 137.004 302.951 137.723 302.522C138.442 302.083 139.314 301.864 140.341 301.864C141.396 301.864 142.315 302.06 143.099 302.452L142.595 303.516C142.287 303.376 141.942 303.25 141.559 303.138C141.186 303.026 140.775 302.97 140.327 302.97ZM148.179 307.856L145.589 312H144.119L146.919 307.632C146.564 307.511 146.228 307.343 145.911 307.128C145.603 306.913 145.351 306.619 145.155 306.246C144.959 305.873 144.861 305.392 144.861 304.804C144.861 303.899 145.173 303.208 145.799 302.732C146.424 302.247 147.357 302.004 148.599 302.004H151.399V312H150.139V307.856H148.179ZM148.627 303.082C147.833 303.082 147.222 303.222 146.793 303.502C146.373 303.773 146.163 304.225 146.163 304.86C146.163 305.476 146.368 305.952 146.779 306.288C147.189 306.624 147.824 306.792 148.683 306.792H150.139V303.082H148.627ZM160.814 302.97C159.74 302.97 158.896 303.329 158.28 304.048C157.664 304.767 157.356 305.751 157.356 307.002C157.356 308.243 157.64 309.228 158.21 309.956C158.788 310.675 159.652 311.034 160.8 311.034C161.238 311.034 161.654 310.997 162.046 310.922C162.438 310.847 162.82 310.754 163.194 310.642V311.734C162.82 311.874 162.433 311.977 162.032 312.042C161.64 312.107 161.168 312.14 160.618 312.14C159.6 312.14 158.751 311.93 158.07 311.51C157.388 311.09 156.875 310.493 156.53 309.718C156.194 308.943 156.026 308.033 156.026 306.988C156.026 305.98 156.208 305.093 156.572 304.328C156.945 303.553 157.491 302.951 158.21 302.522C158.928 302.083 159.801 301.864 160.828 301.864C161.882 301.864 162.802 302.06 163.586 302.452L163.082 303.516C162.774 303.376 162.428 303.25 162.046 303.138C161.672 303.026 161.262 302.97 160.814 302.97ZM172.205 312L168.915 303.236H168.859C168.887 303.525 168.91 303.917 168.929 304.412C168.947 304.897 168.957 305.406 168.957 305.938V312H167.795V302.004H169.657L172.737 310.194H172.793L175.929 302.004H177.777V312H176.531V305.854C176.531 305.369 176.54 304.888 176.559 304.412C176.587 303.936 176.61 303.549 176.629 303.25H176.573L173.241 312H172.205ZM186.362 312H180.776V302.004H186.362V303.11H182.036V306.232H186.11V307.324H182.036V310.894H186.362V312ZM196.479 312H195.219V307.338H190.095V312H188.835V302.004H190.095V306.232H195.219V302.004H196.479V312ZM205.078 312H199.492V302.004H205.078V303.11H200.752V306.232H204.826V307.324H200.752V310.894H205.078V312ZM214.285 302.004V310.88H215.559V314.632H214.355V312H207.481V314.632H206.277V310.88H207.047C207.383 310.301 207.701 309.653 207.999 308.934C208.307 308.215 208.578 307.464 208.811 306.68C209.045 305.887 209.236 305.093 209.385 304.3C209.535 303.507 209.628 302.741 209.665 302.004H214.285ZM210.771 303.138C210.734 303.679 210.641 304.291 210.491 304.972C210.351 305.653 210.169 306.353 209.945 307.072C209.731 307.781 209.488 308.467 209.217 309.13C208.956 309.793 208.676 310.376 208.377 310.88H213.039V303.138H210.771ZM220.185 306.862L216.307 302.004H217.707L221.529 306.848V302.004H222.733V306.848L226.555 302.004H227.955L224.077 306.848L228.081 312H226.639L222.733 306.932V312H221.529V306.932L217.609 312H216.167L220.185 306.862ZM235.326 312H229.74V302.004H235.326V303.11H231V306.232H235.074V307.324H231V310.894H235.326V312ZM240.446 302.004C241.752 302.004 242.704 302.261 243.302 302.774C243.899 303.287 244.198 304.011 244.198 304.944C244.198 305.495 244.072 306.013 243.82 306.498C243.577 306.974 243.162 307.361 242.574 307.66C241.995 307.959 241.206 308.108 240.208 308.108H239.06V312H237.8V302.004H240.446ZM240.334 303.082H239.06V307.03H240.068C241.02 307.03 241.729 306.876 242.196 306.568C242.662 306.26 242.896 305.737 242.896 305C242.896 304.356 242.69 303.875 242.28 303.558C241.869 303.241 241.22 303.082 240.334 303.082ZM255.278 306.988C255.278 308.024 255.101 308.929 254.746 309.704C254.401 310.469 253.887 311.067 253.206 311.496C252.525 311.925 251.68 312.14 250.672 312.14C249.636 312.14 248.773 311.925 248.082 311.496C247.401 311.067 246.892 310.465 246.556 309.69C246.22 308.915 246.052 308.01 246.052 306.974C246.052 305.947 246.22 305.051 246.556 304.286C246.892 303.521 247.401 302.923 248.082 302.494C248.773 302.065 249.641 301.85 250.686 301.85C251.685 301.85 252.525 302.065 253.206 302.494C253.887 302.914 254.401 303.511 254.746 304.286C255.101 305.051 255.278 305.952 255.278 306.988ZM247.382 306.988C247.382 308.248 247.648 309.242 248.18 309.97C248.712 310.689 249.543 311.048 250.672 311.048C251.811 311.048 252.641 310.689 253.164 309.97C253.687 309.242 253.948 308.248 253.948 306.988C253.948 305.728 253.687 304.743 253.164 304.034C252.641 303.315 251.815 302.956 250.686 302.956C249.557 302.956 248.721 303.315 248.18 304.034C247.648 304.743 247.382 305.728 247.382 306.988ZM262.184 312L258.894 303.236H258.838C258.866 303.525 258.889 303.917 258.908 304.412C258.926 304.897 258.936 305.406 258.936 305.938V312H257.774V302.004H259.636L262.716 310.194H262.772L265.908 302.004H267.756V312H266.51V305.854C266.51 305.369 266.519 304.888 266.538 304.412C266.566 303.936 266.589 303.549 266.608 303.25H266.552L263.22 312H262.184Z" fill="black"/>
<path d="M92.7238 449V439.004H100.228V449H98.9818V440.11H93.9838V449H92.7238ZM105.89 439.004C107.197 439.004 108.149 439.261 108.746 439.774C109.343 440.287 109.642 441.011 109.642 441.944C109.642 442.495 109.516 443.013 109.264 443.498C109.021 443.974 108.606 444.361 108.018 444.66C107.439 444.959 106.651 445.108 105.652 445.108H104.504V449H103.244V439.004H105.89ZM105.778 440.082H104.504V444.03H105.512C106.464 444.03 107.173 443.876 107.64 443.568C108.107 443.26 108.34 442.737 108.34 442C108.34 441.356 108.135 440.875 107.724 440.558C107.313 440.241 106.665 440.082 105.778 440.082ZM120.723 443.988C120.723 445.024 120.545 445.929 120.191 446.704C119.845 447.469 119.332 448.067 118.651 448.496C117.969 448.925 117.125 449.14 116.117 449.14C115.081 449.14 114.217 448.925 113.527 448.496C112.845 448.067 112.337 447.465 112.001 446.69C111.665 445.915 111.497 445.01 111.497 443.974C111.497 442.947 111.665 442.051 112.001 441.286C112.337 440.521 112.845 439.923 113.527 439.494C114.217 439.065 115.085 438.85 116.131 438.85C117.129 438.85 117.969 439.065 118.651 439.494C119.332 439.914 119.845 440.511 120.191 441.286C120.545 442.051 120.723 442.952 120.723 443.988ZM112.827 443.988C112.827 445.248 113.093 446.242 113.625 446.97C114.157 447.689 114.987 448.048 116.117 448.048C117.255 448.048 118.086 447.689 118.609 446.97C119.131 446.242 119.393 445.248 119.393 443.988C119.393 442.728 119.131 441.743 118.609 441.034C118.086 440.315 117.26 439.956 116.131 439.956C115.001 439.956 114.166 440.315 113.625 441.034C113.093 441.743 112.827 442.728 112.827 443.988ZM130.999 439.004V440.124H126.617V449H125.357V439.004H130.999ZM141.428 443.988C141.428 445.024 141.251 445.929 140.896 446.704C140.551 447.469 140.037 448.067 139.356 448.496C138.675 448.925 137.83 449.14 136.822 449.14C135.786 449.14 134.923 448.925 134.232 448.496C133.551 448.067 133.042 447.465 132.706 446.69C132.37 445.915 132.202 445.01 132.202 443.974C132.202 442.947 132.37 442.051 132.706 441.286C133.042 440.521 133.551 439.923 134.232 439.494C134.923 439.065 135.791 438.85 136.836 438.85C137.835 438.85 138.675 439.065 139.356 439.494C140.037 439.914 140.551 440.511 140.896 441.286C141.251 442.051 141.428 442.952 141.428 443.988ZM133.532 443.988C133.532 445.248 133.798 446.242 134.33 446.97C134.862 447.689 135.693 448.048 136.822 448.048C137.961 448.048 138.791 447.689 139.314 446.97C139.837 446.242 140.098 445.248 140.098 443.988C140.098 442.728 139.837 441.743 139.314 441.034C138.791 440.315 137.965 439.956 136.836 439.956C135.707 439.956 134.871 440.315 134.33 441.034C133.798 441.743 133.532 442.728 133.532 443.988ZM148.207 439.97C147.134 439.97 146.289 440.329 145.673 441.048C145.057 441.767 144.749 442.751 144.749 444.002C144.749 445.243 145.034 446.228 145.603 446.956C146.182 447.675 147.045 448.034 148.193 448.034C148.632 448.034 149.047 447.997 149.439 447.922C149.831 447.847 150.214 447.754 150.587 447.642V448.734C150.214 448.874 149.827 448.977 149.425 449.042C149.033 449.107 148.562 449.14 148.011 449.14C146.994 449.14 146.145 448.93 145.463 448.51C144.782 448.09 144.269 447.493 143.923 446.718C143.587 445.943 143.419 445.033 143.419 443.988C143.419 442.98 143.601 442.093 143.965 441.328C144.339 440.553 144.885 439.951 145.603 439.522C146.322 439.083 147.195 438.864 148.221 438.864C149.276 438.864 150.195 439.06 150.979 439.452L150.475 440.516C150.167 440.376 149.822 440.25 149.439 440.138C149.066 440.026 148.655 439.97 148.207 439.97ZM159.321 449L158.117 445.906H154.155L152.965 449H151.691L155.597 438.962H156.731L160.623 449H159.321ZM156.619 441.762C156.591 441.687 156.544 441.552 156.479 441.356C156.414 441.16 156.348 440.959 156.283 440.754C156.227 440.539 156.18 440.376 156.143 440.264C156.078 440.553 156.003 440.838 155.919 441.118C155.835 441.389 155.765 441.603 155.709 441.762L154.575 444.786H157.739L156.619 441.762ZM165.126 439.004C166.377 439.004 167.32 439.191 167.954 439.564C168.598 439.928 168.92 440.567 168.92 441.482C168.92 442.07 168.757 442.56 168.43 442.952C168.104 443.335 167.632 443.582 167.016 443.694V443.764C167.436 443.829 167.814 443.951 168.15 444.128C168.496 444.305 168.766 444.557 168.962 444.884C169.158 445.211 169.256 445.635 169.256 446.158C169.256 447.063 168.944 447.763 168.318 448.258C167.702 448.753 166.858 449 165.784 449H162.27V439.004H165.126ZM165.378 443.26C166.237 443.26 166.825 443.125 167.142 442.854C167.46 442.574 167.618 442.163 167.618 441.622C167.618 441.071 167.422 440.679 167.03 440.446C166.648 440.203 166.032 440.082 165.182 440.082H163.53V443.26H165.378ZM163.53 444.31V447.936H165.546C166.433 447.936 167.049 447.763 167.394 447.418C167.74 447.073 167.912 446.62 167.912 446.06C167.912 445.537 167.73 445.117 167.366 444.8C167.012 444.473 166.372 444.31 165.448 444.31H163.53ZM174.82 449H173.56V440.11H170.438V439.004H177.928V440.11H174.82V449ZM188.164 443.988C188.164 445.024 187.986 445.929 187.632 446.704C187.286 447.469 186.773 448.067 186.092 448.496C185.41 448.925 184.566 449.14 183.558 449.14C182.522 449.14 181.658 448.925 180.968 448.496C180.286 448.067 179.778 447.465 179.442 446.69C179.106 445.915 178.938 445.01 178.938 443.974C178.938 442.947 179.106 442.051 179.442 441.286C179.778 440.521 180.286 439.923 180.968 439.494C181.658 439.065 182.526 438.85 183.572 438.85C184.57 438.85 185.41 439.065 186.092 439.494C186.773 439.914 187.286 440.511 187.632 441.286C187.986 442.051 188.164 442.952 188.164 443.988ZM180.268 443.988C180.268 445.248 180.534 446.242 181.066 446.97C181.598 447.689 182.428 448.048 183.558 448.048C184.696 448.048 185.527 447.689 186.05 446.97C186.572 446.242 186.834 445.248 186.834 443.988C186.834 442.728 186.572 441.743 186.05 441.034C185.527 440.315 184.701 439.956 183.572 439.956C182.442 439.956 181.607 440.315 181.066 441.034C180.534 441.743 180.268 442.728 180.268 443.988ZM202.447 449H190.659V439.004H191.919V447.88H195.909V439.004H197.169V447.88H201.173V439.004H202.447V449ZM212.753 449H211.241L206.719 443.932V449H205.459V439.004H206.719V443.848L211.129 439.004H212.557L208.217 443.862L212.753 449ZM222.842 443.988C222.842 445.024 222.664 445.929 222.31 446.704C221.964 447.469 221.451 448.067 220.77 448.496C220.088 448.925 219.244 449.14 218.236 449.14C217.2 449.14 216.336 448.925 215.646 448.496C214.964 448.067 214.456 447.465 214.12 446.69C213.784 445.915 213.616 445.01 213.616 443.974C213.616 442.947 213.784 442.051 214.12 441.286C214.456 440.521 214.964 439.923 215.646 439.494C216.336 439.065 217.204 438.85 218.25 438.85C219.248 438.85 220.088 439.065 220.77 439.494C221.451 439.914 221.964 440.511 222.31 441.286C222.664 442.051 222.842 442.952 222.842 443.988ZM214.946 443.988C214.946 445.248 215.212 446.242 215.744 446.97C216.276 447.689 217.106 448.048 218.236 448.048C219.374 448.048 220.205 447.689 220.728 446.97C221.25 446.242 221.512 445.248 221.512 443.988C221.512 442.728 221.25 441.743 220.728 441.034C220.205 440.315 219.379 439.956 218.25 439.956C217.12 439.956 216.285 440.315 215.744 441.034C215.212 441.743 214.946 442.728 214.946 443.988ZM232.26 449H231V440.11H227.836C227.752 440.801 227.658 441.529 227.556 442.294C227.453 443.05 227.35 443.773 227.248 444.464C227.145 445.155 227.042 445.743 226.94 446.228C226.818 446.853 226.669 447.385 226.492 447.824C226.314 448.263 226.076 448.594 225.778 448.818C225.488 449.042 225.106 449.154 224.63 449.154C224.471 449.154 224.308 449.135 224.14 449.098C223.981 449.07 223.841 449.033 223.72 448.986V447.936C223.822 447.983 223.939 448.025 224.07 448.062C224.2 448.09 224.34 448.104 224.49 448.104C224.77 448.104 224.989 447.992 225.148 447.768C225.316 447.535 225.446 447.25 225.54 446.914C225.633 446.569 225.712 446.228 225.778 445.892C225.852 445.537 225.941 445.019 226.044 444.338C226.156 443.647 226.272 442.845 226.394 441.93C226.524 441.015 226.655 440.04 226.786 439.004H232.26V449ZM239.442 446.158C239.143 446.821 238.84 447.376 238.532 447.824C238.233 448.263 237.879 448.594 237.468 448.818C237.057 449.033 236.535 449.14 235.9 449.14C235.639 449.14 235.391 449.121 235.158 449.084C234.934 449.047 234.729 448.995 234.542 448.93V447.684C234.729 447.768 234.929 447.838 235.144 447.894C235.359 447.941 235.583 447.964 235.816 447.964C236.339 447.964 236.749 447.852 237.048 447.628C237.356 447.404 237.641 447.007 237.902 446.438L234.052 439.004H235.438L238.224 444.506C238.271 444.599 238.327 444.721 238.392 444.87C238.457 445.01 238.513 445.145 238.56 445.276H238.616C238.653 445.173 238.7 445.052 238.756 444.912C238.812 444.763 238.859 444.641 238.896 444.548L241.304 439.004H242.634L239.442 446.158Z" fill="black"/>
<path d="M79.8074 373.342C79.8074 374.023 79.5928 374.565 79.1634 374.966C78.7341 375.358 78.1601 375.61 77.4414 375.722V375.778C78.2814 375.89 78.9208 376.151 79.3594 376.562C79.7981 376.973 80.0174 377.509 80.0174 378.172C80.0174 379.049 79.6814 379.763 79.0094 380.314C78.3374 380.865 77.3294 381.14 75.9854 381.14C75.4441 381.14 74.9261 381.098 74.4314 381.014C73.9461 380.939 73.4934 380.799 73.0734 380.594V379.446C73.5121 379.651 73.9881 379.815 74.5014 379.936C75.0241 380.048 75.5141 380.104 75.9714 380.104C76.8674 380.104 77.5441 379.936 78.0014 379.6C78.4681 379.264 78.7014 378.788 78.7014 378.172C78.7014 377.537 78.4308 377.075 77.8894 376.786C77.3481 376.497 76.5921 376.352 75.6214 376.352H74.1934V375.302H75.5514C76.5408 375.302 77.2781 375.139 77.7634 374.812C78.2581 374.476 78.5054 374.028 78.5054 373.468C78.5054 372.964 78.3188 372.577 77.9454 372.306C77.5721 372.035 77.0868 371.9 76.4894 371.9C75.8641 371.9 75.3414 371.979 74.9214 372.138C74.5108 372.297 74.1094 372.502 73.7174 372.754L73.1154 371.9C73.5074 371.611 73.9881 371.368 74.5574 371.172C75.1361 370.967 75.7848 370.864 76.5034 370.864C77.5861 370.864 78.4074 371.097 78.9674 371.564C79.5274 372.031 79.8074 372.623 79.8074 373.342ZM88.6819 381L87.4779 377.906H83.5159L82.3259 381H81.0519L84.9579 370.962H86.0919L89.9839 381H88.6819ZM85.9799 373.762C85.9519 373.687 85.9052 373.552 85.8399 373.356C85.7746 373.16 85.7092 372.959 85.6439 372.754C85.5879 372.539 85.5412 372.376 85.5039 372.264C85.4386 372.553 85.3639 372.838 85.2799 373.118C85.1959 373.389 85.1259 373.603 85.0699 373.762L83.9359 376.786H87.0999L85.9799 373.762ZM91.6313 381V371.004H99.1353V381H97.8893V372.11H92.8913V381H91.6313ZM102.166 371.004H103.342V376.492C103.342 376.8 103.337 377.145 103.328 377.528C103.318 377.911 103.304 378.261 103.286 378.578C103.276 378.895 103.262 379.129 103.244 379.278H103.3L108.802 371.004H110.202V381H109.026V375.568C109.026 375.223 109.03 374.854 109.04 374.462C109.058 374.07 109.077 373.711 109.096 373.384C109.114 373.057 109.128 372.824 109.138 372.684H109.082L103.566 381H102.166V371.004ZM117.462 371.97C116.388 371.97 115.544 372.329 114.928 373.048C114.312 373.767 114.004 374.751 114.004 376.002C114.004 377.243 114.288 378.228 114.858 378.956C115.436 379.675 116.3 380.034 117.448 380.034C117.886 380.034 118.302 379.997 118.694 379.922C119.086 379.847 119.468 379.754 119.842 379.642V380.734C119.468 380.874 119.081 380.977 118.68 381.042C118.288 381.107 117.816 381.14 117.266 381.14C116.248 381.14 115.399 380.93 114.718 380.51C114.036 380.09 113.523 379.493 113.178 378.718C112.842 377.943 112.674 377.033 112.674 375.988C112.674 374.98 112.856 374.093 113.22 373.328C113.593 372.553 114.139 371.951 114.858 371.522C115.576 371.083 116.449 370.864 117.476 370.864C118.53 370.864 119.45 371.06 120.234 371.452L119.73 372.516C119.422 372.376 119.076 372.25 118.694 372.138C118.32 372.026 117.91 371.97 117.462 371.97ZM128.575 381L127.371 377.906H123.409L122.219 381H120.945L124.851 370.962H125.985L129.877 381H128.575ZM125.873 373.762C125.845 373.687 125.799 373.552 125.733 373.356C125.668 373.16 125.603 372.959 125.537 372.754C125.481 372.539 125.435 372.376 125.397 372.264C125.332 372.553 125.257 372.838 125.173 373.118C125.089 373.389 125.019 373.603 124.963 373.762L123.829 376.786H126.993L125.873 373.762ZM133.704 381H132.444V372.11H129.322V371.004H136.812V372.11H133.704V381ZM138.6 381V371.004H139.86V375.232H141.736C142.669 375.232 143.411 375.358 143.962 375.61C144.512 375.862 144.909 376.203 145.152 376.632C145.394 377.061 145.516 377.542 145.516 378.074C145.516 378.951 145.217 379.661 144.62 380.202C144.022 380.734 143.112 381 141.89 381H138.6ZM141.764 379.922C143.397 379.922 144.214 379.306 144.214 378.074C144.214 377.43 143.99 376.977 143.542 376.716C143.094 376.455 142.44 376.324 141.582 376.324H139.86V379.922H141.764ZM152.146 371.97C151.073 371.97 150.228 372.329 149.612 373.048C148.996 373.767 148.688 374.751 148.688 376.002C148.688 377.243 148.973 378.228 149.542 378.956C150.121 379.675 150.984 380.034 152.132 380.034C152.571 380.034 152.986 379.997 153.378 379.922C153.77 379.847 154.153 379.754 154.526 379.642V380.734C154.153 380.874 153.765 380.977 153.364 381.042C152.972 381.107 152.501 381.14 151.95 381.14C150.933 381.14 150.083 380.93 149.402 380.51C148.721 380.09 148.207 379.493 147.862 378.718C147.526 377.943 147.358 377.033 147.358 375.988C147.358 374.98 147.54 374.093 147.904 373.328C148.277 372.553 148.823 371.951 149.542 371.522C150.261 371.083 151.133 370.864 152.16 370.864C153.215 370.864 154.134 371.06 154.918 371.452L154.414 372.516C154.106 372.376 153.761 372.25 153.378 372.138C153.005 372.026 152.594 371.97 152.146 371.97ZM159.998 376.856L157.408 381H155.938L158.738 376.632C158.383 376.511 158.047 376.343 157.73 376.128C157.422 375.913 157.17 375.619 156.974 375.246C156.778 374.873 156.68 374.392 156.68 373.804C156.68 372.899 156.992 372.208 157.618 371.732C158.243 371.247 159.176 371.004 160.418 371.004H163.218V381H161.958V376.856H159.998ZM160.446 372.082C159.652 372.082 159.041 372.222 158.612 372.502C158.192 372.773 157.982 373.225 157.982 373.86C157.982 374.476 158.187 374.952 158.598 375.288C159.008 375.624 159.643 375.792 160.502 375.792H161.958V372.082H160.446ZM171.205 371.004C172.455 371.004 173.398 371.191 174.033 371.564C174.677 371.928 174.999 372.567 174.999 373.482C174.999 374.07 174.835 374.56 174.509 374.952C174.182 375.335 173.711 375.582 173.095 375.694V375.764C173.515 375.829 173.893 375.951 174.229 376.128C174.574 376.305 174.845 376.557 175.041 376.884C175.237 377.211 175.335 377.635 175.335 378.158C175.335 379.063 175.022 379.763 174.397 380.258C173.781 380.753 172.936 381 171.863 381H168.349V371.004H171.205ZM171.457 375.26C172.315 375.26 172.903 375.125 173.221 374.854C173.538 374.574 173.697 374.163 173.697 373.622C173.697 373.071 173.501 372.679 173.109 372.446C172.726 372.203 172.11 372.082 171.261 372.082H169.609V375.26H171.457ZM169.609 376.31V379.936H171.625C172.511 379.936 173.127 379.763 173.473 379.418C173.818 379.073 173.991 378.62 173.991 378.06C173.991 377.537 173.809 377.117 173.445 376.8C173.09 376.473 172.451 376.31 171.527 376.31H169.609ZM186.145 381L184.941 377.906H180.979L179.789 381H178.515L182.421 370.962H183.555L187.447 381H186.145ZM183.443 373.762C183.415 373.687 183.369 373.552 183.303 373.356C183.238 373.16 183.173 372.959 183.107 372.754C183.051 372.539 183.005 372.376 182.967 372.264C182.902 372.553 182.827 372.838 182.743 373.118C182.659 373.389 182.589 373.603 182.533 373.762L181.399 376.786H184.563L183.443 373.762ZM191.951 371.004C193.201 371.004 194.144 371.191 194.779 371.564C195.423 371.928 195.745 372.567 195.745 373.482C195.745 374.07 195.581 374.56 195.255 374.952C194.928 375.335 194.457 375.582 193.841 375.694V375.764C194.261 375.829 194.639 375.951 194.975 376.128C195.32 376.305 195.591 376.557 195.787 376.884C195.983 377.211 196.081 377.635 196.081 378.158C196.081 379.063 195.768 379.763 195.143 380.258C194.527 380.753 193.682 381 192.609 381H189.095V371.004H191.951ZM192.203 375.26C193.061 375.26 193.649 375.125 193.967 374.854C194.284 374.574 194.443 374.163 194.443 373.622C194.443 373.071 194.247 372.679 193.855 372.446C193.472 372.203 192.856 372.082 192.007 372.082H190.355V375.26H192.203ZM190.355 376.31V379.936H192.371C193.257 379.936 193.873 379.763 194.219 379.418C194.564 379.073 194.737 378.62 194.737 378.06C194.737 377.537 194.555 377.117 194.191 376.8C193.836 376.473 193.197 376.31 192.273 376.31H190.355ZM201.644 381H200.384V372.11H197.262V371.004H204.752V372.11H201.644V381ZM214.988 375.988C214.988 377.024 214.811 377.929 214.456 378.704C214.111 379.469 213.597 380.067 212.916 380.496C212.235 380.925 211.39 381.14 210.382 381.14C209.346 381.14 208.483 380.925 207.792 380.496C207.111 380.067 206.602 379.465 206.266 378.69C205.93 377.915 205.762 377.01 205.762 375.974C205.762 374.947 205.93 374.051 206.266 373.286C206.602 372.521 207.111 371.923 207.792 371.494C208.483 371.065 209.351 370.85 210.396 370.85C211.395 370.85 212.235 371.065 212.916 371.494C213.597 371.914 214.111 372.511 214.456 373.286C214.811 374.051 214.988 374.952 214.988 375.988ZM207.092 375.988C207.092 377.248 207.358 378.242 207.89 378.97C208.422 379.689 209.253 380.048 210.382 380.048C211.521 380.048 212.351 379.689 212.874 378.97C213.397 378.242 213.658 377.248 213.658 375.988C213.658 374.728 213.397 373.743 212.874 373.034C212.351 372.315 211.525 371.956 210.396 371.956C209.267 371.956 208.431 372.315 207.89 373.034C207.358 373.743 207.092 374.728 207.092 375.988ZM229.272 381H217.484V371.004H218.744V379.88H222.734V371.004H223.994V379.88H227.998V371.004H229.272V381ZM239.577 381H238.065L233.543 375.932V381H232.283V371.004H233.543V375.848L237.953 371.004H239.381L235.041 375.862L239.577 381ZM249.666 375.988C249.666 377.024 249.489 377.929 249.134 378.704C248.789 379.469 248.275 380.067 247.594 380.496C246.913 380.925 246.068 381.14 245.06 381.14C244.024 381.14 243.161 380.925 242.47 380.496C241.789 380.067 241.28 379.465 240.944 378.69C240.608 377.915 240.44 377.01 240.44 375.974C240.44 374.947 240.608 374.051 240.944 373.286C241.28 372.521 241.789 371.923 242.47 371.494C243.161 371.065 244.029 370.85 245.074 370.85C246.073 370.85 246.913 371.065 247.594 371.494C248.275 371.914 248.789 372.511 249.134 373.286C249.489 374.051 249.666 374.952 249.666 375.988ZM241.77 375.988C241.77 377.248 242.036 378.242 242.568 378.97C243.1 379.689 243.931 380.048 245.06 380.048C246.199 380.048 247.029 379.689 247.552 378.97C248.075 378.242 248.336 377.248 248.336 375.988C248.336 374.728 248.075 373.743 247.552 373.034C247.029 372.315 246.203 371.956 245.074 371.956C243.945 371.956 243.109 372.315 242.568 373.034C242.036 373.743 241.77 374.728 241.77 375.988ZM259.084 381H257.824V372.11H254.66C254.576 372.801 254.483 373.529 254.38 374.294C254.277 375.05 254.175 375.773 254.072 376.464C253.969 377.155 253.867 377.743 253.764 378.228C253.643 378.853 253.493 379.385 253.316 379.824C253.139 380.263 252.901 380.594 252.602 380.818C252.313 381.042 251.93 381.154 251.454 381.154C251.295 381.154 251.132 381.135 250.964 381.098C250.805 381.07 250.665 381.033 250.544 380.986V379.936C250.647 379.983 250.763 380.025 250.894 380.062C251.025 380.09 251.165 380.104 251.314 380.104C251.594 380.104 251.813 379.992 251.972 379.768C252.14 379.535 252.271 379.25 252.364 378.914C252.457 378.569 252.537 378.228 252.602 377.892C252.677 377.537 252.765 377.019 252.868 376.338C252.98 375.647 253.097 374.845 253.218 373.93C253.349 373.015 253.479 372.04 253.61 371.004H259.084V381ZM266.266 378.158C265.968 378.821 265.664 379.376 265.356 379.824C265.058 380.263 264.703 380.594 264.292 380.818C263.882 381.033 263.359 381.14 262.724 381.14C262.463 381.14 262.216 381.121 261.982 381.084C261.758 381.047 261.553 380.995 261.366 380.93V379.684C261.553 379.768 261.754 379.838 261.968 379.894C262.183 379.941 262.407 379.964 262.64 379.964C263.163 379.964 263.574 379.852 263.872 379.628C264.18 379.404 264.465 379.007 264.726 378.438L260.876 371.004H262.262L265.048 376.506C265.095 376.599 265.151 376.721 265.216 376.87C265.282 377.01 265.338 377.145 265.384 377.276H265.44C265.478 377.173 265.524 377.052 265.58 376.912C265.636 376.763 265.683 376.641 265.72 376.548L268.128 371.004H269.458L266.266 378.158Z" fill="black"/>
<path d="M84.5268 517V507.004H92.0308V517H90.7848V508.11H85.7868V517H84.5268ZM97.6931 507.004C98.9997 507.004 99.9517 507.261 100.549 507.774C101.146 508.287 101.445 509.011 101.445 509.944C101.445 510.495 101.319 511.013 101.067 511.498C100.824 511.974 100.409 512.361 99.8211 512.66C99.2424 512.959 98.4537 513.108 97.4551 513.108H96.3071V517H95.0471V507.004H97.6931ZM97.5811 508.082H96.3071V512.03H97.3151C98.2671 512.03 98.9764 511.876 99.4431 511.568C99.9097 511.26 100.143 510.737 100.143 510C100.143 509.356 99.9377 508.875 99.5271 508.558C99.1164 508.241 98.4677 508.082 97.5811 508.082ZM112.526 511.988C112.526 513.024 112.348 513.929 111.994 514.704C111.648 515.469 111.135 516.067 110.454 516.496C109.772 516.925 108.928 517.14 107.92 517.14C106.884 517.14 106.02 516.925 105.33 516.496C104.648 516.067 104.14 515.465 103.804 514.69C103.468 513.915 103.3 513.01 103.3 511.974C103.3 510.947 103.468 510.051 103.804 509.286C104.14 508.521 104.648 507.923 105.33 507.494C106.02 507.065 106.888 506.85 107.934 506.85C108.932 506.85 109.772 507.065 110.454 507.494C111.135 507.914 111.648 508.511 111.994 509.286C112.348 510.051 112.526 510.952 112.526 511.988ZM104.63 511.988C104.63 513.248 104.896 514.242 105.428 514.97C105.96 515.689 106.79 516.048 107.92 516.048C109.058 516.048 109.889 515.689 110.412 514.97C110.934 514.242 111.196 513.248 111.196 511.988C111.196 510.728 110.934 509.743 110.412 509.034C109.889 508.315 109.063 507.956 107.934 507.956C106.804 507.956 105.969 508.315 105.428 509.034C104.896 509.743 104.63 510.728 104.63 511.988ZM120.663 507.004V508.124H116.281V517H115.021V507.004H120.663ZM125.289 507.004C126.596 507.004 127.548 507.261 128.145 507.774C128.742 508.287 129.041 509.011 129.041 509.944C129.041 510.495 128.915 511.013 128.663 511.498C128.42 511.974 128.005 512.361 127.417 512.66C126.838 512.959 126.05 513.108 125.051 513.108H123.903V517H122.643V507.004H125.289ZM125.177 508.082H123.903V512.03H124.911C125.863 512.03 126.572 511.876 127.039 511.568C127.506 511.26 127.739 510.737 127.739 510C127.739 509.356 127.534 508.875 127.123 508.558C126.712 508.241 126.064 508.082 125.177 508.082ZM136.974 517L135.77 513.906H131.808L130.618 517H129.344L133.25 506.962H134.384L138.276 517H136.974ZM134.272 509.762C134.244 509.687 134.198 509.552 134.132 509.356C134.067 509.16 134.002 508.959 133.936 508.754C133.88 508.539 133.834 508.376 133.796 508.264C133.731 508.553 133.656 508.838 133.572 509.118C133.488 509.389 133.418 509.603 133.362 509.762L132.228 512.786H135.392L134.272 509.762ZM144.334 517L141.044 508.236H140.988C141.016 508.525 141.039 508.917 141.058 509.412C141.076 509.897 141.086 510.406 141.086 510.938V517H139.924V507.004H141.786L144.866 515.194H144.922L148.058 507.004H149.906V517H148.66V510.854C148.66 510.369 148.669 509.888 148.688 509.412C148.716 508.936 148.739 508.549 148.758 508.25H148.702L145.37 517H144.334ZM157.315 517L154.025 508.236H153.969C153.997 508.525 154.02 508.917 154.039 509.412C154.057 509.897 154.067 510.406 154.067 510.938V517H152.905V507.004H154.767L157.847 515.194H157.903L161.039 507.004H162.887V517H161.641V510.854C161.641 510.369 161.65 509.888 161.669 509.412C161.697 508.936 161.72 508.549 161.739 508.25H161.683L158.351 517H157.315ZM165.886 517V507.004H167.146V511.232H168.686C169.619 511.232 170.352 511.358 170.884 511.61C171.425 511.862 171.808 512.203 172.032 512.632C172.265 513.061 172.382 513.542 172.382 514.074C172.382 514.951 172.097 515.661 171.528 516.202C170.968 516.734 170.072 517 168.84 517H165.886ZM173.922 517V507.004H175.182V517H173.922ZM168.728 515.936C169.531 515.936 170.123 515.782 170.506 515.474C170.889 515.166 171.08 514.699 171.08 514.074C171.08 513.43 170.87 512.982 170.45 512.73C170.039 512.469 169.405 512.338 168.546 512.338H167.146V515.936H168.728ZM189.045 511.988C189.045 513.024 188.868 513.929 188.513 514.704C188.168 515.469 187.654 516.067 186.973 516.496C186.292 516.925 185.447 517.14 184.439 517.14C183.403 517.14 182.54 516.925 181.849 516.496C181.168 516.067 180.659 515.465 180.323 514.69C179.987 513.915 179.819 513.01 179.819 511.974C179.819 510.947 179.987 510.051 180.323 509.286C180.659 508.521 181.168 507.923 181.849 507.494C182.54 507.065 183.408 506.85 184.453 506.85C185.452 506.85 186.292 507.065 186.973 507.494C187.654 507.914 188.168 508.511 188.513 509.286C188.868 510.051 189.045 510.952 189.045 511.988ZM181.149 511.988C181.149 513.248 181.415 514.242 181.947 514.97C182.479 515.689 183.31 516.048 184.439 516.048C185.578 516.048 186.408 515.689 186.931 514.97C187.454 514.242 187.715 513.248 187.715 511.988C187.715 510.728 187.454 509.743 186.931 509.034C186.408 508.315 185.582 507.956 184.453 507.956C183.324 507.956 182.488 508.315 181.947 509.034C181.415 509.743 181.149 510.728 181.149 511.988ZM191.54 517V507.004H197.476V508.11H192.8V511.232H194.284C195.283 511.232 196.058 511.358 196.608 511.61C197.159 511.853 197.542 512.189 197.756 512.618C197.971 513.038 198.078 513.523 198.078 514.074C198.078 514.989 197.803 515.707 197.252 516.23C196.702 516.743 195.773 517 194.466 517H191.54ZM194.34 515.922C195.236 515.922 195.866 515.773 196.23 515.474C196.594 515.166 196.776 514.699 196.776 514.074C196.776 513.43 196.576 512.977 196.174 512.716C195.773 512.455 195.092 512.324 194.13 512.324H192.8V515.922H194.34ZM204.62 514.158C204.321 514.821 204.018 515.376 203.71 515.824C203.411 516.263 203.056 516.594 202.646 516.818C202.235 517.033 201.712 517.14 201.078 517.14C200.816 517.14 200.569 517.121 200.336 517.084C200.112 517.047 199.906 516.995 199.72 516.93V515.684C199.906 515.768 200.107 515.838 200.322 515.894C200.536 515.941 200.76 515.964 200.994 515.964C201.516 515.964 201.927 515.852 202.226 515.628C202.534 515.404 202.818 515.007 203.08 514.438L199.23 507.004H200.616L203.402 512.506C203.448 512.599 203.504 512.721 203.57 512.87C203.635 513.01 203.691 513.145 203.738 513.276H203.794C203.831 513.173 203.878 513.052 203.934 512.912C203.99 512.763 204.036 512.641 204.074 512.548L206.482 507.004H207.812L204.62 514.158ZM216.506 517H215.246V512.898C214.705 513.085 214.196 513.239 213.72 513.36C213.253 513.472 212.731 513.528 212.152 513.528C211.219 513.528 210.495 513.313 209.982 512.884C209.469 512.445 209.212 511.815 209.212 510.994V507.004H210.472V510.812C210.472 511.353 210.612 511.759 210.892 512.03C211.181 512.291 211.643 512.422 212.278 512.422C212.829 512.422 213.323 512.371 213.762 512.268C214.201 512.165 214.695 512.025 215.246 511.848V507.004H216.506V517ZM225.091 517H219.505V507.004H225.091V508.11H220.765V511.232H224.839V512.324H220.765V515.894H225.091V517ZM235.209 517H233.949V512.338H228.825V517H227.565V507.004H228.825V511.232H233.949V507.004H235.209V517ZM238.236 507.004H239.412V512.492C239.412 512.8 239.407 513.145 239.398 513.528C239.388 513.911 239.374 514.261 239.356 514.578C239.346 514.895 239.332 515.129 239.314 515.278H239.37L244.872 507.004H246.272V517H245.096V511.568C245.096 511.223 245.1 510.854 245.11 510.462C245.128 510.07 245.147 509.711 245.166 509.384C245.184 509.057 245.198 508.824 245.208 508.684H245.152L239.636 517H238.236V507.004ZM252.258 512.856L249.668 517H248.198L250.998 512.632C250.643 512.511 250.307 512.343 249.99 512.128C249.682 511.913 249.43 511.619 249.234 511.246C249.038 510.873 248.94 510.392 248.94 509.804C248.94 508.899 249.252 508.208 249.878 507.732C250.503 507.247 251.436 507.004 252.678 507.004H255.478V517H254.218V512.856H252.258ZM252.706 508.082C251.912 508.082 251.301 508.222 250.872 508.502C250.452 508.773 250.242 509.225 250.242 509.86C250.242 510.476 250.447 510.952 250.858 511.288C251.268 511.624 251.903 511.792 252.762 511.792H254.218V508.082H252.706Z" fill="black"/>
<defs>
<filter id="filter0_dd_0_1" x="59" y="285" width="226" height="55" filterUnits="userSpaceOnUse" color-interpolation-filters="sRGB">
<feFlood flood-opacity="0" result="BackgroundImageFix"/>
<feColorMatrix in="SourceAlpha" type="matrix" values="0 0 0 0 0 0 0 0 0 0 0 0 0 0 0 0 0 0 127 0" result="hardAlpha"/>
<feOffset dy="4"/>
<feGaussianBlur stdDeviation="2"/>
<feComposite in2="hardAlpha" operator="out"/>
<feColorMatrix type="matrix" values="0 0 0 0 0 0 0 0 0 0 0 0 0 0 0 0 0 0 0.25 0"/>
<feBlend mode="normal" in2="BackgroundImageFix" result="effect1_dropShadow_0_1"/>
<feColorMatrix in="SourceAlpha" type="matrix" values="0 0 0 0 0 0 0 0 0 0 0 0 0 0 0 0 0 0 127 0" result="hardAlpha"/>
<feOffset dy="4"/>
<feGaussianBlur stdDeviation="2"/>
<feComposite in2="hardAlpha" operator="out"/>
<feColorMatrix type="matrix" values="0 0 0 0 0 0 0 0 0 0 0 0 0 0 0 0 0 0 0.25 0"/>
<feBlend mode="normal" in2="effect1_dropShadow_0_1" result="effect2_dropShadow_0_1"/>
<feBlend mode="normal" in="SourceGraphic" in2="effect2_dropShadow_0_1" result="shape"/>
</filter>
<filter id="filter1_dd_0_1" x="57" y="353" width="226" height="55" filterUnits="userSpaceOnUse" color-interpolation-filters="sRGB">
<feFlood flood-opacity="0" result="BackgroundImageFix"/>
<feColorMatrix in="SourceAlpha" type="matrix" values="0 0 0 0 0 0 0 0 0 0 0 0 0 0 0 0 0 0 127 0" result="hardAlpha"/>
<feOffset dy="4"/>
<feGaussianBlur stdDeviation="2"/>
<feComposite in2="hardAlpha" operator="out"/>
<feColorMatrix type="matrix" values="0 0 0 0 0 0 0 0 0 0 0 0 0 0 0 0 0 0 0.25 0"/>
<feBlend mode="normal" in2="BackgroundImageFix" result="effect1_dropShadow_0_1"/>
<feColorMatrix in="SourceAlpha" type="matrix" values="0 0 0 0 0 0 0 0 0 0 0 0 0 0 0 0 0 0 127 0" result="hardAlpha"/>
<feOffset dy="4"/>
<feGaussianBlur stdDeviation="2"/>
<feComposite in2="hardAlpha" operator="out"/>
<feColorMatrix type="matrix" values="0 0 0 0 0 0 0 0 0 0 0 0 0 0 0 0 0 0 0.25 0"/>
<feBlend mode="normal" in2="effect1_dropShadow_0_1" result="effect2_dropShadow_0_1"/>
<feBlend mode="normal" in="SourceGraphic" in2="effect2_dropShadow_0_1" result="shape"/>
</filter>
<filter id="filter2_dd_0_1" x="58" y="421" width="226" height="55" filterUnits="userSpaceOnUse" color-interpolation-filters="sRGB">
<feFlood flood-opacity="0" result="BackgroundImageFix"/>
<feColorMatrix in="SourceAlpha" type="matrix" values="0 0 0 0 0 0 0 0 0 0 0 0 0 0 0 0 0 0 127 0" result="hardAlpha"/>
<feOffset dy="4"/>
<feGaussianBlur stdDeviation="2"/>
<feComposite in2="hardAlpha" operator="out"/>
<feColorMatrix type="matrix" values="0 0 0 0 0 0 0 0 0 0 0 0 0 0 0 0 0 0 0.25 0"/>
<feBlend mode="normal" in2="BackgroundImageFix" result="effect1_dropShadow_0_1"/>
<feColorMatrix in="SourceAlpha" type="matrix" values="0 0 0 0 0 0 0 0 0 0 0 0 0 0 0 0 0 0 127 0" result="hardAlpha"/>
<feOffset dy="4"/>
<feGaussianBlur stdDeviation="2"/>
<feComposite in2="hardAlpha" operator="out"/>
<feColorMatrix type="matrix" values="0 0 0 0 0 0 0 0 0 0 0 0 0 0 0 0 0 0 0.25 0"/>
<feBlend mode="normal" in2="effect1_dropShadow_0_1" result="effect2_dropShadow_0_1"/>
<feBlend mode="normal" in="SourceGraphic" in2="effect2_dropShadow_0_1" result="shape"/>
</filter>
<filter id="filter3_dd_0_1" x="58" y="489" width="226" height="55" filterUnits="userSpaceOnUse" color-interpolation-filters="sRGB">
<feFlood flood-opacity="0" result="BackgroundImageFix"/>
<feColorMatrix in="SourceAlpha" type="matrix" values="0 0 0 0 0 0 0 0 0 0 0 0 0 0 0 0 0 0 127 0" result="hardAlpha"/>
<feOffset dy="4"/>
<feGaussianBlur stdDeviation="2"/>
<feComposite in2="hardAlpha" operator="out"/>
<feColorMatrix type="matrix" values="0 0 0 0 0 0 0 0 0 0 0 0 0 0 0 0 0 0 0.25 0"/>
<feBlend mode="normal" in2="BackgroundImageFix" result="effect1_dropShadow_0_1"/>
<feColorMatrix in="SourceAlpha" type="matrix" values="0 0 0 0 0 0 0 0 0 0 0 0 0 0 0 0 0 0 127 0" result="hardAlpha"/>
<feOffset dy="4"/>
<feGaussianBlur stdDeviation="2"/>
<feComposite in2="hardAlpha" operator="out"/>
<feColorMatrix type="matrix" values="0 0 0 0 0 0 0 0 0 0 0 0 0 0 0 0 0 0 0.25 0"/>
<feBlend mode="normal" in2="effect1_dropShadow_0_1" result="effect2_dropShadow_0_1"/>
<feBlend mode="normal" in="SourceGraphic" in2="effect2_dropShadow_0_1" result="shape"/>
</filter>
<linearGradient id="paint0_linear_0_1" x1="179.471" y1="160.575" x2="152.601" y2="133.705" gradientUnits="userSpaceOnUse">
<stop stop-color="#D87807"/>
<stop offset="1" stop-color="#FF981F"/>
</linearGradient>
</defs>
</svg>
